<svg height='100px' width='100px'  fill="#c9cfc0" xmlns="http://www.w3.org/2000/svg" viewBox="0 0 64 64" x="0px" y="0px"><g><path d="M7.787,24.2A8.548,8.548,0,0,1,9,24a12.076,12.076,0,0,1,1.335.184,17.239,17.239,0,0,0,2.62.306l.045,0V33a1,1,0,0,0,1,1h.719L9.03,56.757A1,1,0,0,0,10,58h6v3a1,1,0,0,0,1,1H27a1,1,0,0,0,1-1,4.948,4.948,0,0,0-1.026-3H31a1,1,0,0,0,.96-1.28L25.333,34H28a3,3,0,0,0,0-6H26.587L26,20.917A1,1,0,0,0,25,20H23V18h.167A3.838,3.838,0,0,0,27,14.167V7.22A2.989,2.989,0,0,0,25,2H10a1,1,0,0,0-.97.757l-5,20A1,1,0,0,0,4,23a1.4,1.4,0,0,0,.515,1.108C5.269,24.722,6.491,24.469,7.787,24.2ZM17,20H15V17.427A4.007,4.007,0,0,0,17,18Zm8.829,40H18V58h5A3.006,3.006,0,0,1,25.829,60ZM28.5,52H24v2h5.083l.584,2H11.281l.5-2H18V52H12.281l4.5-18H23.25ZM29,31a1,1,0,0,1-1,1H20a1,1,0,0,1-1-1V27a1,1,0,0,1,2,0v2a1,1,0,0,0,1,1h6A1,1,0,0,1,29,31Zm-4.42-3H23V27a3,3,0,0,0-6,0v4a2.966,2.966,0,0,0,.184,1H15V22h9.08ZM21,20H19V18h2Zm4-5.833A1.835,1.835,0,0,1,23.167,16H17.042A2.044,2.044,0,0,1,15,13.958V8H25ZM10.781,4H25a1,1,0,0,1,0,2H14a1,1,0,0,0-1,1V22.494a20.342,20.342,0,0,1-2.335-.283A11.686,11.686,0,0,0,9,22a8.924,8.924,0,0,0-1.618.242c-.324.068-.823.171-1.217.221Z"></path><rect x="21" y="10" width="2" height="2"></rect><rect x="41" y="10" width="2" height="2"></rect><rect x="20" y="52" width="2" height="2"></rect><path d="M36,34h1.186L37,36.938A1,1,0,0,0,38,38h1.049l.906,18.114A5.006,5.006,0,0,0,36,61a1,1,0,0,0,1,1H47a1,1,0,0,0,1-1V57.021L48.951,38H50a1,1,0,0,0,1-1V21a1,1,0,0,0-1-1H47V18h.167A3.838,3.838,0,0,0,51,14.167V7.816A2.993,2.993,0,0,0,50,2H36a1,1,0,0,0-1,1V5a3,3,0,0,0,2,2.816v6.142A4.044,4.044,0,0,0,41,18v2H39a1,1,0,0,0-1,.938L37.561,28H36a3,3,0,0,0,0,6ZM46,60H38.171A3.006,3.006,0,0,1,41,58h5Zm.049-4h-4.1l-.9-18h5.9ZM37,4H50a1,1,0,0,1,0,2H38a1,1,0,0,1-1-1Zm2,9.958V8H49v6.167A1.835,1.835,0,0,1,47.167,16H41.042A2.044,2.044,0,0,1,39,13.958ZM43,18h2v2H43Zm-3.061,4H49V36H39.064l.125-2H44a3,3,0,0,0,3-3V27a3,3,0,0,0-6,0v1H39.564ZM36,30h6a1,1,0,0,0,1-1V27a1,1,0,0,1,2,0v4a1,1,0,0,1-1,1H36a1,1,0,0,1,0-2Z"></path></g></svg>